<?xml version="1.0" encoding="UTF-8"?>
<svg xmlns="http://www.w3.org/2000/svg" xmlns:xlink="http://www.w3.org/1999/xlink" width="355px" height="195px" viewBox="0 0 354 195" version="1.1">
<g id="surface1">
<path style=" stroke:none;fill-rule:nonzero;fill:rgb(42.352941%,38.823529%,100%);fill-opacity:1;" d="M 141.890625 123.90625 C 141.890625 129.453125 137.394531 133.953125 131.847656 133.953125 C 126.304688 133.953125 121.808594 129.453125 121.808594 123.90625 C 121.808594 118.355469 126.304688 113.855469 131.847656 113.855469 C 137.394531 113.855469 141.890625 118.355469 141.890625 123.90625 Z M 141.890625 123.90625 "/>
<path style=" stroke:none;fill-rule:nonzero;fill:rgb(100%,100%,100%);fill-opacity:1;" d="M 130.890625 128.144531 L 127.886719 124.277344 L 129.632812 122.917969 L 131.058594 124.75 L 135.863281 119.671875 L 137.472656 121.195312 Z M 130.890625 128.144531 "/>
<path style=" stroke:none;fill-rule:nonzero;fill:rgb(100%,100%,100%);fill-opacity:1;" d="M 323.726562 31.929688 L 174.453125 31.929688 L 174.453125 0 L 323.726562 0 Z M 323.726562 31.929688 "/>
<path style=" stroke:none;fill-rule:nonzero;fill:rgb(42.352941%,38.823529%,100%);fill-opacity:1;" d="M 201.902344 15.964844 C 201.902344 20.445312 198.273438 24.074219 193.796875 24.074219 C 189.320312 24.074219 185.691406 20.445312 185.691406 15.964844 C 185.691406 11.484375 189.320312 7.855469 193.796875 7.855469 C 198.273438 7.855469 201.902344 11.484375 201.902344 15.964844 Z M 201.902344 15.964844 "/>
<path style=" stroke:none;fill-rule:nonzero;fill:rgb(24.705882%,23.921569%,33.72549%);fill-opacity:1;" d="M 212.515625 10.558594 C 211.769531 10.558594 211.164062 11.164062 211.164062 11.910156 C 211.164062 12.65625 211.769531 13.261719 212.515625 13.261719 L 311.140625 13.261719 C 311.886719 13.257812 312.488281 12.65625 312.488281 11.910156 C 312.488281 11.164062 311.886719 10.558594 311.140625 10.558594 Z M 212.515625 10.558594 "/>
<path style=" stroke:none;fill-rule:nonzero;fill:rgb(24.705882%,23.921569%,33.72549%);fill-opacity:1;" d="M 212.515625 18.667969 C 211.769531 18.667969 211.164062 19.269531 211.164062 20.019531 C 211.160156 20.765625 211.765625 21.371094 212.511719 21.371094 L 274.863281 21.371094 C 275.347656 21.375 275.792969 21.117188 276.035156 20.695312 C 276.277344 20.277344 276.277344 19.761719 276.035156 19.34375 C 275.792969 18.925781 275.347656 18.667969 274.863281 18.667969 Z M 212.515625 18.667969 "/>
<path style=" stroke:none;fill-rule:nonzero;fill:rgb(80%,80%,80%);fill-opacity:1;" d="M 323.726562 31.929688 L 174.453125 31.929688 L 174.453125 0 L 323.726562 0 Z M 176.734375 29.648438 L 321.449219 29.648438 L 321.449219 2.28125 L 176.734375 2.28125 Z M 176.734375 29.648438 "/>
<path style=" stroke:none;fill-rule:nonzero;fill:rgb(100%,100%,100%);fill-opacity:1;" d="M 323.726562 71.84375 L 174.453125 71.84375 L 174.453125 39.914062 L 323.726562 39.914062 Z M 323.726562 71.84375 "/>
<path style=" stroke:none;fill-rule:nonzero;fill:rgb(90.196078%,90.196078%,90.196078%);fill-opacity:1;" d="M 201.902344 55.878906 C 201.902344 60.355469 198.273438 63.988281 193.796875 63.988281 C 189.320312 63.988281 185.691406 60.355469 185.691406 55.878906 C 185.691406 51.398438 189.320312 47.765625 193.796875 47.765625 C 198.273438 47.765625 201.902344 51.398438 201.902344 55.878906 Z M 201.902344 55.878906 "/>
<path style=" stroke:none;fill-rule:nonzero;fill:rgb(90.196078%,90.196078%,90.196078%);fill-opacity:1;" d="M 212.515625 50.46875 C 211.769531 50.46875 211.164062 51.074219 211.164062 51.820312 C 211.164062 52.566406 211.769531 53.171875 212.515625 53.171875 L 311.140625 53.171875 C 311.886719 53.171875 312.488281 52.566406 312.488281 51.820312 C 312.488281 51.078125 311.886719 50.472656 311.140625 50.46875 Z M 212.515625 50.46875 "/>
<path style=" stroke:none;fill-rule:nonzero;fill:rgb(90.196078%,90.196078%,90.196078%);fill-opacity:1;" d="M 212.515625 58.582031 C 211.769531 58.578125 211.164062 59.183594 211.164062 59.929688 C 211.160156 60.675781 211.765625 61.28125 212.511719 61.285156 L 274.863281 61.285156 C 275.347656 61.285156 275.792969 61.027344 276.035156 60.609375 C 276.277344 60.191406 276.277344 59.675781 276.035156 59.257812 C 275.792969 58.835938 275.347656 58.578125 274.863281 58.582031 Z M 212.515625 58.582031 "/>
<path style=" stroke:none;fill-rule:nonzero;fill:rgb(90.196078%,90.196078%,90.196078%);fill-opacity:1;" d="M 323.726562 71.84375 L 174.453125 71.84375 L 174.453125 39.914062 L 323.726562 39.914062 Z M 176.734375 69.5625 L 321.449219 69.5625 L 321.449219 42.191406 L 176.734375 42.191406 Z M 176.734375 69.5625 "/>
<path style=" stroke:none;fill-rule:nonzero;fill:rgb(100%,100%,100%);fill-opacity:1;" d="M 323.726562 111.753906 L 174.453125 111.753906 L 174.453125 79.824219 L 323.726562 79.824219 Z M 323.726562 111.753906 "/>
<path style=" stroke:none;fill-rule:nonzero;fill:rgb(90.196078%,90.196078%,90.196078%);fill-opacity:1;" d="M 201.902344 95.789062 C 201.902344 100.269531 198.273438 103.902344 193.796875 103.902344 C 189.320312 103.902344 185.691406 100.269531 185.691406 95.789062 C 185.691406 91.308594 189.320312 87.679688 193.796875 87.679688 C 198.273438 87.679688 201.902344 91.308594 201.902344 95.789062 Z M 201.902344 95.789062 "/>
<path style=" stroke:none;fill-rule:nonzero;fill:rgb(90.196078%,90.196078%,90.196078%);fill-opacity:1;" d="M 212.515625 90.382812 C 211.769531 90.382812 211.164062 90.988281 211.164062 91.734375 C 211.164062 92.480469 211.769531 93.085938 212.515625 93.085938 L 311.140625 93.085938 C 311.886719 93.085938 312.488281 92.480469 312.488281 91.734375 C 312.488281 90.988281 311.886719 90.382812 311.140625 90.382812 Z M 212.515625 90.382812 "/>
<path style=" stroke:none;fill-rule:nonzero;fill:rgb(90.196078%,90.196078%,90.196078%);fill-opacity:1;" d="M 212.515625 98.492188 C 211.769531 98.492188 211.164062 99.09375 211.164062 99.84375 C 211.160156 100.589844 211.765625 101.195312 212.511719 101.195312 L 274.863281 101.195312 C 275.347656 101.199219 275.792969 100.941406 276.035156 100.523438 C 276.277344 100.101562 276.277344 99.585938 276.035156 99.167969 C 275.792969 98.75 275.347656 98.492188 274.863281 98.492188 Z M 212.515625 98.492188 "/>
<path style=" stroke:none;fill-rule:nonzero;fill:rgb(90.196078%,90.196078%,90.196078%);fill-opacity:1;" d="M 323.726562 111.753906 L 174.453125 111.753906 L 174.453125 79.824219 L 323.726562 79.824219 Z M 176.734375 109.472656 L 321.449219 109.472656 L 321.449219 82.105469 L 176.734375 82.105469 Z M 176.734375 109.472656 "/>
<path style=" stroke:none;fill-rule:nonzero;fill:rgb(100%,72.156863%,72.156863%);fill-opacity:1;" d="M 76.253906 119.328125 C 75.566406 118.445312 75.304688 117.296875 75.539062 116.199219 C 75.777344 115.101562 76.484375 114.167969 77.480469 113.644531 L 76.6875 105.011719 L 81.8125 103.25 L 82.757812 115.457031 C 83.542969 117.222656 82.882812 119.296875 81.226562 120.285156 C 79.566406 121.273438 77.429688 120.863281 76.253906 119.328125 Z M 76.253906 119.328125 "/>
<path style=" stroke:none;fill-rule:nonzero;fill:rgb(80%,80%,80%);fill-opacity:1;" d="M 81.753906 69.785156 C 81.753906 69.785156 85.269531 62.402344 88.394531 65 C 91.519531 67.597656 84.113281 89.433594 84.113281 89.433594 L 82.984375 110.632812 L 77.046875 110.039062 L 75.367188 89.386719 Z M 81.753906 69.785156 "/>
<path style=" stroke:none;fill-rule:nonzero;fill:rgb(100%,72.156863%,72.156863%);fill-opacity:1;" d="M 34.585938 179.054688 L 38.992188 182.625 L 54.855469 167.308594 L 48.351562 162.035156 Z M 34.585938 179.054688 "/>
<path style=" stroke:none;fill-rule:nonzero;fill:rgb(18.431373%,18.039216%,25.490196%);fill-opacity:1;" d="M 34.625 176.703125 L 43.308594 183.734375 C 46.363281 186.210938 46.835938 190.695312 44.363281 193.753906 L 44.214844 193.933594 L 30 182.417969 Z M 34.625 176.703125 "/>
<path style=" stroke:none;fill-rule:nonzero;fill:rgb(100%,72.156863%,72.156863%);fill-opacity:1;" d="M 95.851562 188.964844 L 101.523438 188.964844 L 104.222656 167.074219 L 95.851562 167.074219 Z M 95.851562 188.964844 "/>
<path style=" stroke:none;fill-rule:nonzero;fill:rgb(18.431373%,18.039216%,25.490196%);fill-opacity:1;" d="M 94.40625 187.113281 L 105.574219 187.113281 C 109.507812 187.113281 112.695312 190.300781 112.695312 194.238281 L 112.695312 194.46875 L 94.40625 194.46875 Z M 94.40625 187.113281 "/>
<path style=" stroke:none;fill-rule:nonzero;fill:rgb(18.431373%,18.039216%,25.490196%);fill-opacity:1;" d="M 105.804688 86.328125 C 105.804688 86.328125 116.445312 99.292969 114.132812 112.253906 C 111.820312 125.21875 109.96875 134.941406 109.96875 134.941406 L 106.265625 164.109375 C 106.265625 164.109375 107.65625 172.050781 105.804688 174.097656 C 105.804688 174.097656 108.582031 178.925781 103.492188 180.777344 C 98.402344 182.628906 95.65625 180.136719 95.65625 180.136719 C 95.65625 180.136719 91.925781 174.757812 94.238281 173.367188 L 95.214844 116.128906 L 58.152344 164.570312 C 58.152344 164.570312 57.472656 170.464844 52.722656 170.527344 L 47.050781 174.757812 L 40.574219 171.054688 L 43.8125 166.886719 C 43.8125 166.886719 41.960938 162.257812 46.125 161.332031 L 70.183594 129.847656 L 76.195312 113.644531 C 76.195312 113.644531 79.433594 101.144531 88.226562 96.050781 L 88.226562 90.632812 Z M 105.804688 86.328125 "/>
<path style=" stroke:none;fill-rule:nonzero;fill:rgb(80%,80%,80%);fill-opacity:1;" d="M 87.53125 63.875 C 90.429688 60.445312 95.4375 59.738281 99.175781 62.230469 L 99.558594 62.484375 C 103.664062 67.140625 106.425781 72.824219 107.542969 78.933594 L 109.273438 88.410156 L 87.53125 93.125 L 82.433594 75.53125 C 81.097656 70.925781 83.242188 66.019531 87.53125 63.875 Z M 87.53125 63.875 "/>
<path style=" stroke:none;fill-rule:nonzero;fill:rgb(100%,72.156863%,72.156863%);fill-opacity:1;" d="M 123.253906 121.34375 C 122.035156 120.945312 121.054688 120.027344 120.574219 118.832031 C 120.097656 117.640625 120.171875 116.296875 120.777344 115.167969 L 114.507812 107.484375 L 118.242188 102.53125 L 126.949219 113.503906 C 128.820312 114.675781 129.523438 117.066406 128.582031 119.066406 C 127.636719 121.066406 125.351562 122.046875 123.253906 121.34375 Z M 123.253906 121.34375 "/>
<path style=" stroke:none;fill-rule:nonzero;fill:rgb(80%,80%,80%);fill-opacity:1;" d="M 96.785156 70.820312 C 96.785156 70.820312 95.394531 61.558594 100.023438 62.023438 C 104.648438 62.484375 111.585938 87.949219 111.585938 87.949219 L 124.078125 108.78125 L 118.0625 112.023438 L 103.261719 93.503906 Z M 96.785156 70.820312 "/>
<path style=" stroke:none;fill-rule:nonzero;fill:rgb(18.431373%,18.039216%,25.490196%);fill-opacity:1;" d="M 105.253906 57.28125 L 83.226562 57.28125 C 82.28125 57.28125 81.515625 56.515625 81.515625 55.570312 L 81.515625 46.066406 C 81.515625 39.035156 87.210938 33.335938 94.238281 33.335938 C 101.265625 33.335938 106.964844 39.035156 106.964844 46.066406 L 106.964844 55.570312 C 106.964844 56.515625 106.199219 57.28125 105.253906 57.28125 Z M 105.253906 57.28125 "/>
<path style=" stroke:none;fill-rule:nonzero;fill:rgb(100%,72.156863%,72.156863%);fill-opacity:1;" d="M 106.183594 47.722656 C 106.183594 52.878906 102.007812 57.058594 96.855469 57.058594 C 91.703125 57.058594 87.527344 52.878906 87.527344 47.722656 C 87.527344 42.566406 91.703125 38.386719 96.855469 38.386719 C 102.007812 38.386719 106.183594 42.566406 106.183594 47.722656 Z M 106.183594 47.722656 "/>
<path style=" stroke:none;fill-rule:nonzero;fill:rgb(18.431373%,18.039216%,25.490196%);fill-opacity:1;" d="M 109.972656 47.019531 L 98.234375 47.019531 L 98.113281 45.082031 L 97.511719 47.019531 L 95.703125 47.019531 L 95.464844 43.183594 L 94.273438 47.019531 L 90.773438 47.019531 L 90.773438 46.828125 C 90.773438 41.273438 94.710938 36.753906 99.546875 36.753906 L 101.203125 36.753906 C 106.039062 36.753906 109.972656 41.273438 109.972656 46.828125 Z M 109.972656 47.019531 "/>
<path style=" stroke:none;fill-rule:nonzero;fill:rgb(18.431373%,18.039216%,25.490196%);fill-opacity:1;" d="M 98.71875 59.054688 C 98.578125 59.054688 98.433594 59.042969 98.292969 59.023438 L 84.316406 56.867188 L 84.316406 42.300781 C 84.316406 39.203125 86.828125 36.691406 89.921875 36.691406 L 99.699219 36.691406 L 99.320312 37.078125 C 94.019531 42.476562 98.011719 51.234375 100.863281 55.96875 C 101.292969 56.667969 101.214844 57.566406 100.675781 58.183594 C 100.183594 58.746094 99.46875 59.066406 98.71875 59.054688 Z M 98.71875 59.054688 "/>
<path style=" stroke:none;fill-rule:nonzero;fill:rgb(42.352941%,38.823529%,100%);fill-opacity:1;" d="M 353.835938 15.953125 C 353.835938 21.5 349.339844 26 343.792969 26 C 338.246094 26 333.75 21.5 333.75 15.953125 C 333.75 10.402344 338.246094 5.902344 343.792969 5.902344 C 349.339844 5.902344 353.835938 10.402344 353.835938 15.953125 Z M 353.835938 15.953125 "/>
<path style=" stroke:none;fill-rule:nonzero;fill:rgb(100%,100%,100%);fill-opacity:1;" d="M 342.835938 20.191406 L 339.832031 16.324219 L 341.578125 14.964844 L 343 16.796875 L 347.808594 11.71875 L 349.417969 13.242188 Z M 342.835938 20.191406 "/>
<path style=" stroke:none;fill-rule:nonzero;fill:rgb(80%,80%,80%);fill-opacity:1;" d="M 145.09375 194.925781 L 0.378906 194.925781 C 0.171875 194.925781 0 194.753906 0 194.542969 C 0 194.335938 0.171875 194.164062 0.378906 194.164062 L 145.09375 194.164062 C 145.304688 194.164062 145.472656 194.335938 145.472656 194.542969 C 145.472656 194.753906 145.304688 194.925781 145.09375 194.925781 Z M 145.09375 194.925781 "/>
</g>
</svg>
